<svg width="41" height="41" viewBox="0 0 41 41" fill="none" xmlns="http://www.w3.org/2000/svg">
<path fill-rule="evenodd" clip-rule="evenodd" d="M10.25 18.45V14.35C10.25 11.6315 11.3299 9.02441 13.2521 7.10216C15.1744 5.17991 17.7815 4.10001 20.5 4.10001C23.2185 4.10001 25.8256 5.17991 27.7478 7.10216C29.6701 9.02441 30.75 11.6315 30.75 14.35V18.45C31.8374 18.45 32.8802 18.882 33.6491 19.6509C34.418 20.4198 34.85 21.4626 34.85 22.55V32.8C34.85 33.8874 34.418 34.9303 33.6491 35.6992C32.8802 36.4681 31.8374 36.9 30.75 36.9H10.25C9.16261 36.9 8.11976 36.4681 7.35086 35.6992C6.58196 34.9303 6.14999 33.8874 6.14999 32.8V22.55C6.14999 21.4626 6.58196 20.4198 7.35086 19.6509C8.11976 18.882 9.16261 18.45 10.25 18.45ZM26.65 14.35V18.45H14.35V14.35C14.35 12.7189 14.9979 11.1547 16.1513 10.0013C17.3046 8.84795 18.8689 8.20001 20.5 8.20001C22.1311 8.20001 23.6954 8.84795 24.8487 10.0013C26.0021 11.1547 26.65 12.7189 26.65 14.35Z" fill="#3581B8"/>
</svg>
