<svg width="41" height="41" viewBox="0 0 41 41" fill="none" xmlns="http://www.w3.org/2000/svg">
<path d="M37.5833 14.7053V28.6146C37.5834 30.0327 37.0409 31.3972 36.0669 32.428C35.0929 33.4588 33.7615 34.0778 32.3456 34.1581L32.0313 34.1667H8.96876C7.5506 34.1668 6.18617 33.6242 5.15536 32.6502C4.12455 31.6763 3.5055 30.3448 3.42521 28.9289L3.41667 28.6146V14.7053L19.9055 23.3427C20.0889 23.4388 20.2929 23.4889 20.5 23.4889C20.7071 23.4889 20.9111 23.4388 21.0945 23.3427L37.5833 14.7053ZM8.96876 6.83334H32.0313C33.4075 6.83318 34.7347 7.34413 35.7555 8.26709C36.7763 9.19006 37.418 10.4592 37.556 11.8285L20.5 20.7631L3.44401 11.8285C3.57644 10.5136 4.17355 9.2891 5.12799 8.37505C6.08244 7.461 7.33163 6.91737 8.65101 6.84189L8.96876 6.83334H32.0313H8.96876Z" fill="#3581B8"/>
</svg>
